<svg version="1.1" id="Layer_1" xmlns="http://www.w3.org/2000/svg" xmlns:xlink="http://www.w3.org/1999/xlink" x="0px" y="0px"
	 width="100%" viewBox="0 0 1426 394" enable-background="new 0 0 1426 394" xml:space="preserve">
<path fill="#010101" opacity="1.000000" stroke="none" 
	d="
M1005.000000,395.000000 
	C670.000000,395.000000 335.500031,395.000000 1.000045,395.000000 
	C1.000030,263.666687 1.000030,132.333389 1.000015,1.000063 
	C476.333282,1.000042 951.666565,1.000042 1427.000000,1.000021 
	C1427.000000,132.333267 1427.000000,263.666534 1427.000000,394.999908 
	C1286.500000,395.000000 1146.000000,395.000000 1005.000000,395.000000 
M816.499939,212.766235 
	C833.494385,212.755417 850.488892,212.724426 867.483276,212.750397 
	C870.975342,212.755737 874.522034,212.625458 877.947998,213.164780 
	C885.669800,214.380371 891.268005,221.621399 890.717590,229.174149 
	C890.148499,236.982849 883.419861,243.239609 875.430847,243.270508 
	C863.934570,243.314957 852.438049,243.283020 840.941589,243.283524 
	C808.951538,243.284912 776.961426,243.272903 744.971375,243.298737 
	C738.555786,243.303909 737.683655,244.195160 737.635193,250.483505 
	C737.596619,255.481567 737.616028,260.480499 737.657532,265.478668 
	C737.713806,272.253571 738.352173,272.893494 745.157532,272.894867 
	C788.477356,272.903503 831.799805,273.139282 875.114319,272.660553 
	C882.307983,272.581055 890.028198,270.526733 896.535828,267.380310 
	C915.325439,258.295654 923.999878,237.637451 918.708069,216.255600 
	C914.260803,198.286041 897.219177,183.096191 876.980652,182.867966 
	C873.148987,182.824753 869.316467,182.842743 865.484375,182.841995 
	C836.826599,182.836426 808.168823,182.826355 779.511047,182.834854 
	C773.419922,182.836670 769.059998,179.981552 766.126404,174.799240 
	C763.225525,169.674713 763.484436,164.588882 766.702576,159.711334 
	C770.403564,154.101822 776.011597,152.648224 782.324890,152.656433 
	C807.650391,152.689377 832.975830,152.667084 858.301331,152.664917 
	C875.795898,152.663422 893.290527,152.699463 910.784912,152.637650 
	C916.397034,152.617828 917.541443,151.416428 917.619629,145.876602 
	C917.687866,141.045822 917.624084,136.213165 917.620178,131.381348 
	C917.613586,123.253479 917.202759,122.794678 909.254517,122.791260 
	C866.434509,122.772842 823.612549,123.019905 780.795349,122.669563 
	C757.654785,122.480225 738.592468,138.693359 734.894165,160.888947 
	C731.066589,183.859924 747.961365,209.218201 771.093262,211.854477 
	C785.739868,213.523712 800.687317,212.552841 816.499939,212.766235 
M167.595718,242.525803 
	C162.208420,242.844498 156.821136,243.163208 151.013824,243.506760 
	C151.013824,232.424240 150.950958,222.291351 151.044052,212.159897 
	C151.082504,207.973892 149.240051,206.014404 145.062408,206.052582 
	C138.898270,206.108902 132.733261,206.085129 126.568687,206.068314 
	C123.127281,206.058914 121.167336,207.745270 121.157555,211.169434 
	C121.103775,229.996429 121.023376,248.825394 121.319855,267.647888 
	C121.347481,269.401581 123.984718,272.648956 125.344597,272.614471 
	C143.081955,272.164398 160.904526,274.863586 178.549088,270.280579 
	C200.321671,264.625336 219.366486,241.992065 219.922379,219.524109 
	C220.260162,205.870789 220.331192,192.193253 219.941788,178.543152 
	C219.051605,147.341492 194.794159,123.327682 163.528046,122.918076 
	C136.874893,122.568909 110.213501,122.858597 83.555771,122.843643 
	C74.896111,122.838783 66.766861,124.856720 59.089695,128.869720 
	C40.214809,138.736008 29.286217,154.394791 27.735743,175.429642 
	C26.625177,190.496323 27.653259,205.728653 27.931032,220.883347 
	C27.991417,224.177811 28.558014,227.565598 29.507866,230.725098 
	C37.843815,258.453003 64.362671,275.976746 93.034050,272.907074 
	C96.468903,272.539307 98.062965,270.854187 97.980423,267.377838 
	C97.885529,263.381409 98.037827,259.379120 97.944954,255.382599 
	C97.701675,244.913696 100.806915,243.341461 86.126358,243.159805 
	C69.378242,242.952606 57.672535,231.450653 57.191925,215.023499 
	C56.860748,203.703812 56.857647,192.357620 57.210106,181.038895 
	C57.723564,164.550064 69.091454,152.965683 85.292717,152.782990 
	C110.947487,152.493698 136.610886,152.475769 162.264938,152.797165 
	C178.268951,152.997635 189.544525,164.041458 190.209656,180.046585 
	C190.714142,192.185822 190.638351,204.378403 190.160736,216.521286 
	C189.645432,229.622437 181.310196,239.034027 167.595718,242.525803 
M1283.499878,152.664261 
	C1300.324951,152.670242 1317.152222,152.519333 1333.974365,152.742950 
	C1343.568237,152.870483 1350.231079,159.603683 1350.040039,168.245285 
	C1349.855835,176.585007 1342.944092,182.796585 1333.690186,182.838150 
	C1323.861572,182.882309 1314.032837,182.843552 1304.204102,182.842178 
	C1271.885986,182.837646 1239.567871,182.852737 1207.249756,182.805374 
	C1203.186279,182.799423 1199.930664,183.275024 1199.942749,188.541702 
	C1200.003418,214.862274 1199.962891,241.183044 1199.967041,267.503754 
	C1199.967529,271.176117 1201.755737,272.966888 1205.512451,272.917114 
	C1211.175293,272.842041 1216.840332,272.937500 1222.504150,272.912048 
	C1228.444824,272.885345 1229.753174,271.575531 1229.766357,265.511047 
	C1229.794067,252.683823 1229.766846,239.856491 1229.763062,227.029190 
	C1229.761597,222.420593 1229.762817,217.811996 1229.762817,212.716019 
	C1232.140503,212.716019 1233.929443,212.716125 1235.718384,212.715973 
	C1258.540894,212.714096 1281.365479,212.885635 1304.185181,212.633926 
	C1314.894165,212.515808 1322.078369,217.241135 1327.097534,226.404587 
	C1334.681641,240.250824 1342.612671,253.906677 1350.250610,267.723969 
	C1352.324097,271.474823 1354.909546,273.296967 1359.400269,273.015869 
	C1365.374146,272.641907 1371.389038,272.958191 1377.385864,272.910614 
	C1384.262695,272.856049 1385.999268,270.096497 1382.703369,264.257172 
	C1374.876221,250.389542 1366.945312,236.580429 1359.077515,222.735733 
	C1356.668091,218.496048 1354.327026,214.217468 1351.961426,209.968704 
	C1354.428955,208.522995 1356.308838,207.480408 1358.130859,206.345108 
	C1375.283691,195.657486 1383.315918,175.673370 1378.557495,156.853668 
	C1373.822021,138.125153 1356.270996,122.667107 1335.785156,122.867393 
	C1327.956787,122.943932 1320.126465,122.812965 1312.297119,122.812004 
	C1277.146973,122.807671 1241.996948,122.800690 1206.846802,122.834236 
	C1200.575317,122.840218 1200.011108,123.483604 1199.974243,129.767883 
	C1199.944946,134.765396 1199.928833,139.763214 1199.948853,144.760742 
	C1199.978149,152.071869 1200.569458,152.656876 1208.034790,152.660202 
	C1232.856445,152.671310 1257.678101,152.664307 1283.499878,152.664261 
M364.499969,272.895782 
	C376.826538,272.903992 389.153870,272.990479 401.479279,272.873779 
	C405.284760,272.837769 409.136261,272.535309 412.879456,271.866486 
	C441.885468,266.683838 461.277771,243.927979 461.773010,214.418579 
	C461.977051,202.261642 461.825562,190.098648 461.826233,177.938400 
	C461.827087,162.446579 461.824799,146.954742 461.811035,131.462921 
	C461.803650,123.150330 461.464844,122.823761 452.970917,122.786835 
	C448.473358,122.767281 443.975586,122.748138 439.478119,122.772133 
	C432.636444,122.808624 432.018768,123.443657 432.019257,130.164886 
	C432.021301,157.816956 432.120209,185.469513 431.981842,213.120895 
	C431.895294,230.413177 421.238586,242.639572 404.463104,243.031815 
	C378.161743,243.646805 351.823181,243.577408 325.521606,242.931519 
	C310.086090,242.552475 299.446503,230.835251 298.707947,215.345764 
	C298.478088,210.525146 298.598816,205.686813 298.595764,200.856567 
	C298.580688,177.035828 298.504578,153.214691 298.631714,129.394669 
	C298.657593,124.547646 297.080414,122.388229 291.969086,122.718765 
	C286.661102,123.062019 281.312775,122.748360 275.982666,122.790840 
	C269.908997,122.839256 269.250946,123.394806 269.246552,129.295044 
	C269.225067,158.113052 268.945587,186.937485 269.512146,215.744827 
	C269.661713,223.351471 271.173187,231.514984 274.336121,238.372681 
	C285.153625,261.826813 304.246521,273.007080 330.017639,272.919647 
	C341.178284,272.881775 352.339172,272.901978 364.499969,272.895782 
M656.720093,188.625992 
	C648.311646,172.416504 640.228394,156.027252 631.395203,140.052612 
	C623.904297,126.505684 612.272766,118.302925 596.383301,118.200951 
	C579.509460,118.092651 566.668091,125.694710 558.752563,140.762329 
	C543.857666,169.115311 529.127014,197.554672 514.360596,225.975052 
	C507.552612,239.078125 500.745667,252.182877 494.094299,265.365601 
	C491.585541,270.337982 493.327393,272.867004 498.918915,272.906372 
	C505.250183,272.950958 511.590607,272.738678 517.910278,273.018036 
	C521.951599,273.196686 524.401123,271.732574 526.213928,268.131073 
	C532.403259,255.834549 538.797119,243.640884 545.124939,231.414169 
	C558.172363,206.203613 571.230347,180.998550 584.276611,155.787384 
	C586.646606,151.207565 589.956177,147.997833 595.499573,148.117462 
	C600.796631,148.231781 603.924683,151.355438 606.197266,155.800797 
	C609.596069,162.449173 613.181824,169.001816 616.601990,175.639481 
	C632.493408,206.480316 648.349670,237.339264 664.235901,268.182770 
	C665.873108,271.361420 668.165771,273.194580 672.144958,272.995514 
	C678.294373,272.687836 684.470825,272.944122 690.635559,272.914581 
	C697.800293,272.880280 699.203735,270.483612 695.815857,263.943176 
	C682.919312,239.045624 669.990784,214.164612 656.720093,188.625992 
M1136.032593,223.397614 
	C1123.036621,198.361374 1109.980835,173.355942 1097.073486,148.274048 
	C1091.759644,137.947830 1085.958008,128.070084 1075.034302,122.722656 
	C1053.435791,112.149498 1030.167358,120.370422 1018.924561,142.154648 
	C1002.563416,173.856079 986.036316,205.471832 969.594543,237.131653 
	C964.855469,246.257019 960.112854,255.381241 955.472961,264.557098 
	C952.514099,270.408752 954.089722,272.885406 960.609680,272.912109 
	C966.106750,272.934601 971.641357,272.526001 977.090881,273.037292 
	C982.820557,273.574890 985.885742,271.167786 988.378662,266.264526 
	C1000.555420,242.314194 1012.991760,218.495911 1025.322021,194.623520 
	C1032.020264,181.655075 1038.567017,168.606384 1045.420898,155.720993 
	C1049.210327,148.597122 1055.376221,145.907822 1060.896484,149.301483 
	C1063.958496,151.183945 1066.627563,154.403839 1068.365479,157.619781 
	C1075.379150,170.598679 1081.947388,183.818024 1088.706909,196.934753 
	C1100.720459,220.246750 1112.838501,243.505539 1124.703125,266.893036 
	C1126.948853,271.320099 1129.685913,273.402802 1134.802490,273.024963 
	C1140.601074,272.596771 1146.455933,272.955536 1152.286133,272.922516 
	C1158.265991,272.888641 1160.054810,270.011108 1157.329590,264.715668 
	C1150.352783,251.159058 1143.324951,237.628860 1136.032593,223.397614 
z"/>
<path fill="#F0F0F0" opacity="1.000000" stroke="none" 
	d="
M815.999878,212.766144 
	C800.687317,212.552841 785.739868,213.523712 771.093262,211.854477 
	C747.961365,209.218201 731.066589,183.859924 734.894165,160.888947 
	C738.592468,138.693359 757.654785,122.480225 780.795349,122.669563 
	C823.612549,123.019905 866.434509,122.772842 909.254517,122.791260 
	C917.202759,122.794678 917.613586,123.253479 917.620178,131.381348 
	C917.624084,136.213165 917.687866,141.045822 917.619629,145.876602 
	C917.541443,151.416428 916.397034,152.617828 910.784912,152.637650 
	C893.290527,152.699463 875.795898,152.663422 858.301331,152.664917 
	C832.975830,152.667084 807.650391,152.689377 782.324890,152.656433 
	C776.011597,152.648224 770.403564,154.101822 766.702576,159.711334 
	C763.484436,164.588882 763.225525,169.674713 766.126404,174.799240 
	C769.059998,179.981552 773.419922,182.836670 779.511047,182.834854 
	C808.168823,182.826355 836.826599,182.836426 865.484375,182.841995 
	C869.316467,182.842743 873.148987,182.824753 876.980652,182.867966 
	C897.219177,183.096191 914.260803,198.286041 918.708069,216.255600 
	C923.999878,237.637451 915.325439,258.295654 896.535828,267.380310 
	C890.028198,270.526733 882.307983,272.581055 875.114319,272.660553 
	C831.799805,273.139282 788.477356,272.903503 745.157532,272.894867 
	C738.352173,272.893494 737.713806,272.253571 737.657532,265.478668 
	C737.616028,260.480499 737.596619,255.481567 737.635193,250.483505 
	C737.683655,244.195160 738.555786,243.303909 744.971375,243.298737 
	C776.961426,243.272903 808.951538,243.284912 840.941589,243.283524 
	C852.438049,243.283020 863.934570,243.314957 875.430847,243.270508 
	C883.419861,243.239609 890.148499,236.982849 890.717590,229.174149 
	C891.268005,221.621399 885.669800,214.380371 877.947998,213.164780 
	C874.522034,212.625458 870.975342,212.755737 867.483276,212.750397 
	C850.488892,212.724426 833.494385,212.755417 815.999878,212.766144 
z"/>
<path fill="#F0F0F0" opacity="1.000000" stroke="none" 
	d="
M168.000153,242.398224 
	C181.310196,239.034027 189.645432,229.622437 190.160736,216.521286 
	C190.638351,204.378403 190.714142,192.185822 190.209656,180.046585 
	C189.544525,164.041458 178.268951,152.997635 162.264938,152.797165 
	C136.610886,152.475769 110.947487,152.493698 85.292717,152.782990 
	C69.091454,152.965683 57.723564,164.550064 57.210106,181.038895 
	C56.857647,192.357620 56.860748,203.703812 57.191925,215.023499 
	C57.672535,231.450653 69.378242,242.952606 86.126358,243.159805 
	C100.806915,243.341461 97.701675,244.913696 97.944954,255.382599 
	C98.037827,259.379120 97.885529,263.381409 97.980423,267.377838 
	C98.062965,270.854187 96.468903,272.539307 93.034050,272.907074 
	C64.362671,275.976746 37.843815,258.453003 29.507866,230.725098 
	C28.558014,227.565598 27.991417,224.177811 27.931032,220.883347 
	C27.653259,205.728653 26.625177,190.496323 27.735743,175.429642 
	C29.286217,154.394791 40.214809,138.736008 59.089695,128.869720 
	C66.766861,124.856720 74.896111,122.838783 83.555771,122.843643 
	C110.213501,122.858597 136.874893,122.568909 163.528046,122.918076 
	C194.794159,123.327682 219.051605,147.341492 219.941788,178.543152 
	C220.331192,192.193253 220.260162,205.870789 219.922379,219.524109 
	C219.366486,241.992065 200.321671,264.625336 178.549088,270.280579 
	C160.904526,274.863586 143.081955,272.164398 125.344597,272.614471 
	C123.984718,272.648956 121.347481,269.401581 121.319855,267.647888 
	C121.023376,248.825394 121.103775,229.996429 121.157555,211.169434 
	C121.167336,207.745270 123.127281,206.058914 126.568687,206.068314 
	C132.733261,206.085129 138.898270,206.108902 145.062408,206.052582 
	C149.240051,206.014404 151.082504,207.973892 151.044052,212.159897 
	C150.950958,222.291351 151.013824,232.424240 151.013824,243.506760 
	C156.821136,243.163208 162.208420,242.844498 168.000153,242.398224 
z"/>
<path fill="#F0F0F0" opacity="1.000000" stroke="none" 
	d="
M1282.999756,152.664261 
	C1257.678101,152.664307 1232.856445,152.671310 1208.034790,152.660202 
	C1200.569458,152.656876 1199.978149,152.071869 1199.948853,144.760742 
	C1199.928833,139.763214 1199.944946,134.765396 1199.974243,129.767883 
	C1200.011108,123.483604 1200.575317,122.840218 1206.846802,122.834236 
	C1241.996948,122.800690 1277.146973,122.807671 1312.297119,122.812004 
	C1320.126465,122.812965 1327.956787,122.943932 1335.785156,122.867393 
	C1356.270996,122.667107 1373.822021,138.125153 1378.557495,156.853668 
	C1383.315918,175.673370 1375.283691,195.657486 1358.130859,206.345108 
	C1356.308838,207.480408 1354.428955,208.522995 1351.961426,209.968704 
	C1354.327026,214.217468 1356.668091,218.496048 1359.077515,222.735733 
	C1366.945312,236.580429 1374.876221,250.389542 1382.703369,264.257172 
	C1385.999268,270.096497 1384.262695,272.856049 1377.385864,272.910614 
	C1371.389038,272.958191 1365.374146,272.641907 1359.400269,273.015869 
	C1354.909546,273.296967 1352.324097,271.474823 1350.250610,267.723969 
	C1342.612671,253.906677 1334.681641,240.250824 1327.097534,226.404587 
	C1322.078369,217.241135 1314.894165,212.515808 1304.185181,212.633926 
	C1281.365479,212.885635 1258.540894,212.714096 1235.718384,212.715973 
	C1233.929443,212.716125 1232.140503,212.716019 1229.762817,212.716019 
	C1229.762817,217.811996 1229.761597,222.420593 1229.763062,227.029190 
	C1229.766846,239.856491 1229.794067,252.683823 1229.766357,265.511047 
	C1229.753174,271.575531 1228.444824,272.885345 1222.504150,272.912048 
	C1216.840332,272.937500 1211.175293,272.842041 1205.512451,272.917114 
	C1201.755737,272.966888 1199.967529,271.176117 1199.967041,267.503754 
	C1199.962891,241.183044 1200.003418,214.862274 1199.942749,188.541702 
	C1199.930664,183.275024 1203.186279,182.799423 1207.249756,182.805374 
	C1239.567871,182.852737 1271.885986,182.837646 1304.204102,182.842178 
	C1314.032837,182.843552 1323.861572,182.882309 1333.690186,182.838150 
	C1342.944092,182.796585 1349.855835,176.585007 1350.040039,168.245285 
	C1350.231079,159.603683 1343.568237,152.870483 1333.974365,152.742950 
	C1317.152222,152.519333 1300.324951,152.670242 1282.999756,152.664261 
z"/>
<path fill="#EFEFEF" opacity="1.000000" stroke="none" 
	d="
M363.999939,272.895782 
	C352.339172,272.901978 341.178284,272.881775 330.017639,272.919647 
	C304.246521,273.007080 285.153625,261.826813 274.336121,238.372681 
	C271.173187,231.514984 269.661713,223.351471 269.512146,215.744827 
	C268.945587,186.937485 269.225067,158.113052 269.246552,129.295044 
	C269.250946,123.394806 269.908997,122.839256 275.982666,122.790840 
	C281.312775,122.748360 286.661102,123.062019 291.969086,122.718765 
	C297.080414,122.388229 298.657593,124.547646 298.631714,129.394669 
	C298.504578,153.214691 298.580688,177.035828 298.595764,200.856567 
	C298.598816,205.686813 298.478088,210.525146 298.707947,215.345764 
	C299.446503,230.835251 310.086090,242.552475 325.521606,242.931519 
	C351.823181,243.577408 378.161743,243.646805 404.463104,243.031815 
	C421.238586,242.639572 431.895294,230.413177 431.981842,213.120895 
	C432.120209,185.469513 432.021301,157.816956 432.019257,130.164886 
	C432.018768,123.443657 432.636444,122.808624 439.478119,122.772133 
	C443.975586,122.748138 448.473358,122.767281 452.970917,122.786835 
	C461.464844,122.823761 461.803650,123.150330 461.811035,131.462921 
	C461.824799,146.954742 461.827087,162.446579 461.826233,177.938400 
	C461.825562,190.098648 461.977051,202.261642 461.773010,214.418579 
	C461.277771,243.927979 441.885468,266.683838 412.879456,271.866486 
	C409.136261,272.535309 405.284760,272.837769 401.479279,272.873779 
	C389.153870,272.990479 376.826538,272.903992 363.999939,272.895782 
z"/>
<path fill="#F0F0F0" opacity="1.000000" stroke="none" 
	d="
M656.897156,188.951691 
	C669.990784,214.164612 682.919312,239.045624 695.815857,263.943176 
	C699.203735,270.483612 697.800293,272.880280 690.635559,272.914581 
	C684.470825,272.944122 678.294373,272.687836 672.144958,272.995514 
	C668.165771,273.194580 665.873108,271.361420 664.235901,268.182770 
	C648.349670,237.339264 632.493408,206.480316 616.601990,175.639481 
	C613.181824,169.001816 609.596069,162.449173 606.197266,155.800797 
	C603.924683,151.355438 600.796631,148.231781 595.499573,148.117462 
	C589.956177,147.997833 586.646606,151.207565 584.276611,155.787384 
	C571.230347,180.998550 558.172363,206.203613 545.124939,231.414169 
	C538.797119,243.640884 532.403259,255.834549 526.213928,268.131073 
	C524.401123,271.732574 521.951599,273.196686 517.910278,273.018036 
	C511.590607,272.738678 505.250183,272.950958 498.918915,272.906372 
	C493.327393,272.867004 491.585541,270.337982 494.094299,265.365601 
	C500.745667,252.182877 507.552612,239.078125 514.360596,225.975052 
	C529.127014,197.554672 543.857666,169.115311 558.752563,140.762329 
	C566.668091,125.694710 579.509460,118.092651 596.383301,118.200951 
	C612.272766,118.302925 623.904297,126.505684 631.395203,140.052612 
	C640.228394,156.027252 648.311646,172.416504 656.897156,188.951691 
z"/>
<path fill="#F0F0F0" opacity="1.000000" stroke="none" 
	d="
M1136.175049,223.742859 
	C1143.324951,237.628860 1150.352783,251.159058 1157.329590,264.715668 
	C1160.054810,270.011108 1158.265991,272.888641 1152.286133,272.922516 
	C1146.455933,272.955536 1140.601074,272.596771 1134.802490,273.024963 
	C1129.685913,273.402802 1126.948853,271.320099 1124.703125,266.893036 
	C1112.838501,243.505539 1100.720459,220.246750 1088.706909,196.934753 
	C1081.947388,183.818024 1075.379150,170.598679 1068.365479,157.619781 
	C1066.627563,154.403839 1063.958496,151.183945 1060.896484,149.301483 
	C1055.376221,145.907822 1049.210327,148.597122 1045.420898,155.720993 
	C1038.567017,168.606384 1032.020264,181.655075 1025.322021,194.623520 
	C1012.991760,218.495911 1000.555420,242.314194 988.378662,266.264526 
	C985.885742,271.167786 982.820557,273.574890 977.090881,273.037292 
	C971.641357,272.526001 966.106750,272.934601 960.609680,272.912109 
	C954.089722,272.885406 952.514099,270.408752 955.472961,264.557098 
	C960.112854,255.381241 964.855469,246.257019 969.594543,237.131653 
	C986.036316,205.471832 1002.563416,173.856079 1018.924561,142.154648 
	C1030.167358,120.370422 1053.435791,112.149498 1075.034302,122.722656 
	C1085.958008,128.070084 1091.759644,137.947830 1097.073486,148.274048 
	C1109.980835,173.355942 1123.036621,198.361374 1136.175049,223.742859 
z"/>
</svg>